<?xml version="1.0" encoding="UTF-8"?>
<svg xmlns="http://www.w3.org/2000/svg" xmlns:xlink="http://www.w3.org/1999/xlink" version="1.1" viewBox="0 0 256 256">
  <!-- Generator: Adobe Illustrator 29.8.2, SVG Export Plug-In . SVG Version: 2.1.1 Build 3)  -->
  <defs>
    <style>
      .st0 {
        fill: url(#linear-gradient);
      }

      .st1 {
        fill: #fff;
      }
    </style>
    <linearGradient id="linear-gradient" x1="36.22" y1="37.37" x2="208.44" y2="207.44" gradientUnits="userSpaceOnUse">
      <stop offset="0" stop-color="#343434"/>
      <stop offset="1" stop-color="#000"/>
    </linearGradient>
  </defs>
  <g id="Layer_1" focusable="false">
    <rect class="st0" x="4" y="4" width="248" height="248" rx="10.18" ry="10.18"/>
    <g>
      <path class="st1" d="M79.04,187.67c-2.72,0-5.31-.49-7.77-1.46s-4.64-2.41-6.53-4.31c-1.89-1.9-3.38-4.25-4.47-7.05-1.09-2.8-1.64-6.03-1.64-9.69,0-4.78.92-8.85,2.75-12.2s4.29-5.91,7.38-7.67c3.09-1.76,6.51-2.64,10.28-2.64,5.56,0,9.93,1.29,13.11,3.87,3.18,2.58,5.31,6.23,6.39,10.95l-8.34,1.2c-.78-2.52-2.06-4.53-3.83-6.04-1.77-1.51-4.04-2.27-6.79-2.29-2.74-.04-5.02.55-6.84,1.77-1.82,1.22-3.19,2.95-4.09,5.19-.91,2.24-1.37,4.86-1.37,7.86s.45,5.6,1.37,7.8c.91,2.2,2.27,3.91,4.09,5.13s4.1,1.85,6.84,1.89c1.86.04,3.54-.28,5.05-.96,1.51-.68,2.78-1.75,3.83-3.21,1.04-1.46,1.78-3.33,2.22-5.61h-6.84v-6.3h15.54c.04.26.07.72.09,1.38.02.66.03,1.04.03,1.14,0,4.14-.84,7.81-2.52,11.01-1.68,3.2-4.05,5.71-7.11,7.51-3.06,1.81-6.67,2.72-10.83,2.72Z"/>
      <path class="st1" d="M112.76,186.77l-12.66-43.2h8.58l8.1,29.7,8.1-29.64,8.58-.06,8.1,29.7,8.1-29.7h8.58l-12.66,43.2h-8.04l-8.37-29.16-8.37,29.16h-8.04Z"/>
      <path class="st1" d="M159.44,186.77l14.52-21.84-14.1-21.36h10.02l9.18,14.4,9.06-14.4h10.08l-14.1,21.36,14.46,21.84h-10.02l-9.48-14.88-9.54,14.88h-10.08Z"/>
    </g>
    <g>
      <path class="st1" d="M102,219.14c-2.3,0-4.29-.5-5.96-1.5-1.67-1-2.96-2.41-3.86-4.21-.9-1.8-1.35-3.9-1.35-6.29s.45-4.49,1.35-6.29,2.19-3.21,3.86-4.21c1.67-1,3.66-1.5,5.96-1.5,2.65,0,4.87.66,6.66,1.97,1.8,1.31,3.06,3.09,3.8,5.33l-4.38,1.22c-.43-1.4-1.15-2.48-2.16-3.26s-2.32-1.16-3.92-1.16c-1.46,0-2.68.33-3.66.98-.98.65-1.71,1.57-2.2,2.75-.49,1.18-.74,2.58-.74,4.18s.25,2.99.74,4.18c.49,1.18,1.22,2.1,2.2,2.75.98.65,2.19.98,3.66.98,1.6,0,2.91-.39,3.92-1.17,1.01-.78,1.73-1.86,2.16-3.25l4.38,1.22c-.74,2.24-2,4.02-3.8,5.33-1.8,1.31-4.02,1.97-6.66,1.97Z"/>
      <path class="st1" d="M123.76,219.14c-1.74,0-3.26-.39-4.58-1.17-1.31-.78-2.33-1.85-3.06-3.22-.73-1.37-1.1-2.95-1.1-4.73s.37-3.39,1.12-4.76c.75-1.37,1.78-2.44,3.09-3.21,1.31-.77,2.82-1.15,4.53-1.15s3.27.39,4.58,1.17c1.32.78,2.35,1.85,3.08,3.22.74,1.37,1.1,2.95,1.1,4.73s-.37,3.37-1.11,4.74c-.74,1.37-1.77,2.44-3.09,3.22-1.32.77-2.84,1.16-4.57,1.16ZM123.76,215.07c1.4,0,2.44-.47,3.13-1.42.69-.94,1.03-2.16,1.03-3.64s-.35-2.76-1.05-3.68c-.7-.92-1.74-1.38-3.11-1.38-.95,0-1.73.21-2.34.64-.61.43-1.06,1.02-1.35,1.78-.29.76-.44,1.64-.44,2.64,0,1.55.35,2.78,1.05,3.69.7.91,1.73,1.37,3.08,1.37Z"/>
      <path class="st1" d="M136.05,218.66v-17.28h3.84v4.22l-.42-.54c.22-.6.52-1.14.9-1.63.37-.49.83-.9,1.38-1.22.42-.26.87-.46,1.36-.6.49-.14,1-.23,1.52-.27.52-.04,1.04-.02,1.57.04v4.06c-.48-.15-1.04-.2-1.67-.15s-1.21.2-1.72.44c-.51.23-.94.55-1.3.94-.35.39-.62.85-.8,1.38-.18.53-.27,1.12-.27,1.78v8.83h-4.38Z"/>
      <path class="st1" d="M156.95,219.14c-1.77,0-3.33-.38-4.68-1.14s-2.41-1.81-3.17-3.15c-.76-1.34-1.14-2.87-1.14-4.6,0-1.89.37-3.53,1.12-4.93.75-1.4,1.78-2.48,3.09-3.26,1.31-.77,2.82-1.16,4.53-1.16,1.81,0,3.35.43,4.62,1.28,1.27.85,2.21,2.05,2.82,3.6s.82,3.37.64,5.46h-4.3v-1.6c0-1.76-.28-3.03-.84-3.8-.56-.77-1.47-1.16-2.74-1.16-1.48,0-2.57.45-3.27,1.35-.7.9-1.05,2.23-1.05,3.99,0,1.61.35,2.86,1.05,3.74.7.88,1.73,1.32,3.08,1.32.85,0,1.58-.19,2.19-.56.61-.37,1.07-.91,1.39-1.62l4.35,1.25c-.65,1.58-1.68,2.81-3.08,3.68-1.4.88-2.94,1.31-4.6,1.31ZM151.22,211.23v-3.23h11.46v3.23h-11.46Z"/>
    </g>
    <path class="st1" d="M137.82,69v48h-66v-48h66M138.87,61h-68.11c-3.84,0-6.95,3.11-6.95,6.95v50.11c0,3.84,3.11,6.95,6.95,6.95h68.11c3.84,0,6.95-3.11,6.95-6.95v-50.11c0-3.84-3.11-6.95-6.95-6.95h0Z"/>
    <rect class="st1" x="112.8" y="31" width="82" height="64" rx="6.95" ry="6.95"/>
  </g>
</svg>